<?xml version="1.0" ?><!-- Uploaded to: SVG Repo, www.svgrepo.com, Generator: SVG Repo Mixer Tools -->
<svg width="800px" height="800px" viewBox="0 0 2050 2050" data-name="Layer 2" id="Layer_2" xmlns="http://www.w3.org/2000/svg"><defs><style>.cls-1{fill:#323150;}.cls-2{fill:#67baeb;}.cls-3{fill:#83d0fb;}.cls-4{fill:#46a1f8;}.cls-5{fill:#3171ad;}.cls-6{fill:#f4c23f;}.cls-7{fill:#4d4c78;}.cls-8{fill:#f4a93f;}.cls-9{fill:#64639c;}.cls-10{fill:#fad564;}</style></defs><title/><path class="cls-1" d="M1241.2,435.5a20,20,0,0,1-20-19.1,196.4,196.4,0,0,0-392.1-5.8,20,20,0,0,1-39.9-2.8,236.4,236.4,0,0,1,472,6.9,20.1,20.1,0,0,1-19.2,20.8Z"/><path class="cls-2" d="M1025,352.8h0a551.1,551.1,0,0,1,551.1,551.1V1914.2a0,0,0,0,1,0,0H473.9a0,0,0,0,1,0,0V903.9A551.1,551.1,0,0,1,1025,352.8Z"/><path class="cls-3" d="M1233,393.4a286.7,286.7,0,0,0-97.5,215.7c0,158.7,128.7,287.4,287.4,287.4a286.4,286.4,0,0,0,151-42.7C1555,644.8,1419.5,469.5,1233,393.4Z"/><path class="cls-4" d="M624,855.5h813.8a0,0,0,0,1,0,0v31.8a73.3,73.3,0,0,1-73.3,73.3H624a0,0,0,0,1,0,0V855.5A0,0,0,0,1,624,855.5Z"/><path class="cls-4" d="M739.2,1805.7V795.4c0-178.8,85.1-337.7,217.1-438.4-272,33.9-482.4,265.8-482.4,546.9V1914.2H1576.1V1805.7Z"/><path class="cls-5" d="M642.5,915.9c-30.3,0-53.9-26.6-49.8-56.6,12.1-89.7,53-172.5,118.1-237.6,78.5-78.6,183-121.9,294.2-121.9s215.7,43.3,294.2,121.9c65.1,65.1,106,147.9,118.1,237.6,4.1,30-19.5,56.6-49.8,56.6Z"/><path class="cls-6" d="M662.5,903.9c-30.3,0-53.9-26.6-49.8-56.6,12.1-89.7,53-172.5,118.1-237.6,78.5-78.6,183-121.9,294.2-121.9s215.7,43.3,294.2,121.9c65.1,65.1,106,147.9,118.1,237.6,4.1,30-19.5,56.6-49.8,56.6Z"/><path class="cls-4" d="M386.3,1444.9h87.6a0,0,0,0,1,0,0v469.3a0,0,0,0,1,0,0H358.2a74,74,0,0,1-74-74V1547A102.1,102.1,0,0,1,386.3,1444.9Z"/><path class="cls-5" d="M663.4,1085.3h683.3a72.8,72.8,0,0,1,72.8,72.8v756.1a0,0,0,0,1,0,0H590.5a0,0,0,0,1,0,0V1158.1A72.8,72.8,0,0,1,663.4,1085.3Z"/><path class="cls-6" d="M683.4,1085.3h683.3a72.8,72.8,0,0,1,72.8,72.8v756.1a0,0,0,0,1,0,0H610.5a0,0,0,0,1,0,0V1158.1a72.8,72.8,0,0,1,72.8-72.8Z"/><rect class="cls-7" height="131.58" rx="65.8" ry="65.8" width="257.7" x="896.2" y="159.4"/><path class="cls-5" d="M473.9,1444.9H386.3A102.1,102.1,0,0,0,284.2,1547v142.6c0-63.4,40.6-114.8,90.8-114.8h0a53.6,53.6,0,0,1,53.7,53.7v285.7h45.2V1574.8h0Z"/><rect class="cls-2" height="166.43" rx="47.4" ry="47.4" width="94.9" x="284.2" y="1689.6"/><path class="cls-4" d="M1650.2,1444.9h115.7a0,0,0,0,1,0,0v469.3a0,0,0,0,1,0,0h-87.6a102.1,102.1,0,0,1-102.1-102.1V1519A74,74,0,0,1,1650.2,1444.9Z" transform="translate(3342 3359.1) rotate(-180)"/><path class="cls-5" d="M1576.1,1444.9h87.6A102.1,102.1,0,0,1,1765.8,1547v142.6c0-63.4-40.6-114.8-90.8-114.8h0a53.6,53.6,0,0,0-53.7,53.7v285.7h-45.2V1574.8h0Z"/><rect class="cls-2" height="166.43" rx="47.4" ry="47.4" transform="translate(3436.8 3545.6) rotate(-180)" width="94.9" x="1671" y="1689.6"/><path class="cls-8" d="M739.2,795.4a548.4,548.4,0,0,1,53.3-236.7,413.7,413.7,0,0,0-61.7,51c-65.1,65.1-106,147.9-118.1,237.6-4.1,30,19.5,56.6,49.8,56.6h76.7Z"/><path class="cls-8" d="M739.2,1722.4V1085.3H683.4a72.8,72.8,0,0,0-72.9,72.8v756.1h829V1805.7h-617A83.3,83.3,0,0,1,739.2,1722.4Z"/><rect class="cls-9" height="64.16" rx="32.1" ry="32.1" width="162.1" x="947.3" y="161"/><path class="cls-1" d="M1317,1237.7H733a20,20,0,0,1,0-40h584a20,20,0,0,1,0,40Z"/><path class="cls-7" d="M1317,1313.9H1188.9a20,20,0,0,1-20-20v-76.2a20,20,0,0,1,20-20H1317a20,20,0,0,1,20,20v76.2A20,20,0,0,1,1317,1313.9Z"/><rect class="cls-9" height="47.68" rx="23.8" ry="23.8" width="113.5" x="1205.6" y="1197.7"/><path class="cls-10" d="M1319.2,609.7a413.7,413.7,0,0,0-158.5-99.4,262.5,262.5,0,0,0-27.1,116.3c0,145.3,117.8,263.1,263.1,263.1,9.2,0,18.3-.5,27.3-1.4a49.3,49.3,0,0,0,13.3-41C1425.2,757.6,1384.3,674.8,1319.2,609.7Z"/><rect class="cls-10" height="93.42" rx="46.7" ry="46.7" width="507.4" x="872.6" y="1085.3"/><rect class="cls-10" height="226.76" rx="50.4" ry="50.4" width="100.8" x="1337" y="1374.3"/><rect class="cls-3" height="288.47" rx="28.4" ry="28.4" width="56.7" x="1519.4" y="1010.3"/></svg>