<svg xmlns="http://www.w3.org/2000/svg" viewBox="0 0 64 64"><defs><style>.cls-1{fill:#0072ff;}</style></defs><title>Profile Picture Man</title><g id="Layer_2" data-name="Layer 2"><path class="cls-1" d="M36.58,42.13a6.54,6.54,0,0,1-9.15,0,2.05,2.05,0,0,0-2.82-.1,2,2,0,0,0-.05,2.88,10.54,10.54,0,0,0,14.9,0A2,2,0,0,0,39.4,42,2.05,2.05,0,0,0,36.58,42.13Z"/><circle class="cls-1" cx="42" cy="32" r="2"/><circle class="cls-1" cx="22" cy="32" r="2"/><path class="cls-1" d="M6,16a2,2,0,0,0,2-2V8.26A.26.26,0,0,1,8.26,8H14a2,2,0,0,0,0-4H8.26A4.27,4.27,0,0,0,4,8.26V14A2,2,0,0,0,6,16Z"/><path class="cls-1" d="M55.74,4H50a2,2,0,0,0,0,4h5.74a.26.26,0,0,1,.26.26V14a2,2,0,0,0,4,0V8.26A4.27,4.27,0,0,0,55.74,4Z"/><path class="cls-1" d="M58,48a2,2,0,0,0-2,2v5.74a.26.26,0,0,1-.26.26H49.62A1.62,1.62,0,0,1,48,54.38V48h0a19.9,19.9,0,0,0,4-12h0V28h0V23A19,19,0,0,0,33,4H31A19,19,0,0,0,12,23v5h0v8h0a19.9,19.9,0,0,0,4,12v6.4A1.62,1.62,0,0,1,14.38,56H8.26A.26.26,0,0,1,8,55.74V50a2,2,0,0,0-4,0v5.74A4.27,4.27,0,0,0,8.26,60h6.12a5.64,5.64,0,0,0,.82-.06l0,.06,26.9-6.73A1.28,1.28,0,0,1,44,54.38,5.62,5.62,0,0,0,49.62,60h6.12A4.27,4.27,0,0,0,60,55.74V50A2,2,0,0,0,58,48ZM31.91,52A16.11,16.11,0,0,1,16,35.82V32.95h0v-.82A8,8,0,1,1,32,32v2a2,2,0,0,1-2,2,2,2,0,0,0-2,2,2,2,0,0,0,2.07,2h2.11A3.82,3.82,0,0,0,36,36.18V27.86c0-.28,0-.56,0-.84a6.62,6.62,0,0,0-1.95-4.53l-.33-.33a2,2,0,0,1-.07-2.85,2,2,0,0,1,2.85,0l.38.38A10.69,10.69,0,0,1,38.66,22a4.07,4.07,0,0,0,3.55,2h0A5.79,5.79,0,0,1,48,29.79V36A16,16,0,0,1,31.91,52Z"/></g></svg>